mtllib socket.mtl
o Socket
v 1.200000 -7.300000 -4.300000
v 1.200000 7.300000 -4.300000
v 1.200000 7.300000 4.300000
v 1.200000 -7.300000 4.300000
vt 0.130000 0.280000
vt 0.870000 0.280000
vt 0.870000 0.720000
vt 0.130000 0.720000
usemtl SocketFace
f 1/1 2/2 3/3 4/4
v 0.000000 -7.300000 4.300000
v 0.000000 7.300000 4.300000
v 0.000000 7.300000 -4.300000
v 0.000000 -7.300000 -4.300000
vt 0.130000 0.280000
vt 0.870000 0.280000
vt 0.870000 0.720000
vt 0.130000 0.720000
usemtl Plastic
f 5/5 6/6 7/7 8/8
v 0.000000 7.300000 -4.300000
v 0.000000 7.300000 4.300000
v 1.200000 7.300000 4.300000
v 1.200000 7.300000 -4.300000
vt 0.130000 0.280000
vt 0.870000 0.280000
vt 0.870000 0.720000
vt 0.130000 0.720000
usemtl Plastic
f 9/9 10/10 11/11 12/12
v 0.000000 -7.300000 4.300000
v 0.000000 -7.300000 -4.300000
v 1.200000 -7.300000 -4.300000
v 1.200000 -7.300000 4.300000
vt 0.130000 0.280000
vt 0.870000 0.280000
vt 0.870000 0.720000
vt 0.130000 0.720000
usemtl Plastic
f 13/13 14/14 15/15 16/16
v 0.000000 7.300000 4.300000
v 0.000000 -7.300000 4.300000
v 1.200000 -7.300000 4.300000
v 1.200000 7.300000 4.300000
vt 0.130000 0.280000
vt 0.870000 0.280000
vt 0.870000 0.720000
vt 0.130000 0.720000
usemtl Plastic
f 17/17 18/18 19/19 20/20
v 0.000000 -7.300000 -4.300000
v 0.000000 7.300000 -4.300000
v 1.200000 7.300000 -4.300000
v 1.200000 -7.300000 -4.300000
vt 0.130000 0.280000
vt 0.870000 0.280000
vt 0.870000 0.720000
vt 0.130000 0.720000
usemtl Plastic
f 21/21 22/22 23/23 24/24